<svg xmlns="http://www.w3.org/2000/svg" viewBox="0 0 96 96" fill="none">
  <defs>
    <filter id="softShadow" x="-20%" y="-20%" width="140%" height="150%">
      <feDropShadow dx="0" dy="5" stdDeviation="4" flood-color="#0f172a" flood-opacity="0.16"/>
    </filter>
    <linearGradient id="steel" x1="22" y1="16" x2="74" y2="82" gradientUnits="userSpaceOnUse">
      <stop stop-color="#f8fafc"/>
      <stop offset="1" stop-color="#94a3b8"/>
    </linearGradient>
    <linearGradient id="amber" x1="18" y1="18" x2="78" y2="82" gradientUnits="userSpaceOnUse">
      <stop stop-color="#fde68a"/>
      <stop offset="1" stop-color="#f97316"/>
    </linearGradient>
    <linearGradient id="green" x1="18" y1="18" x2="78" y2="82" gradientUnits="userSpaceOnUse">
      <stop stop-color="#bbf7d0"/>
      <stop offset="1" stop-color="#16a34a"/>
    </linearGradient>
    <linearGradient id="blue" x1="16" y1="18" x2="80" y2="82" gradientUnits="userSpaceOnUse">
      <stop stop-color="#bae6fd"/>
      <stop offset="1" stop-color="#2563eb"/>
    </linearGradient>
    <linearGradient id="brown" x1="16" y1="18" x2="80" y2="82" gradientUnits="userSpaceOnUse">
      <stop stop-color="#fef3c7"/>
      <stop offset="1" stop-color="#92400e"/>
    </linearGradient>
    <linearGradient id="rose" x1="18" y1="18" x2="78" y2="82" gradientUnits="userSpaceOnUse">
      <stop stop-color="#fecdd3"/>
      <stop offset="1" stop-color="#e11d48"/>
    </linearGradient>
  </defs>
  <g filter="url(#softShadow)">
    <ellipse cx="48" cy="50" rx="17" ry="23" fill="url(#brown)"/>
    <ellipse cx="48" cy="31" rx="11" ry="9" fill="#78350f"/>
    <path d="M48 29v43M38 39c6 4 14 4 20 0M36 51c8 4 16 4 24 0" stroke="#431407" stroke-width="3" stroke-linecap="round"/>
    <path d="M31 38 15 28M33 49 14 47M35 60 18 72M65 38l16-10M63 49l19-2M61 60l17 12" stroke="#78350f" stroke-width="4" stroke-linecap="round"/>
    <path d="M43 25 34 12M53 25l9-13" stroke="#431407" stroke-width="3" stroke-linecap="round"/>
  </g>
</svg>
